<?xml version="1.0" encoding="utf-8"?>
<!-- Generator: Adobe Illustrator 21.1.0, SVG Export Plug-In . SVG Version: 6.00 Build 0)  -->
<svg version="1.1" id="svg" xmlns="http://www.w3.org/2000/svg" xmlns:xlink="http://www.w3.org/1999/xlink" x="0px" y="0px"
	 viewBox="0 0 1024 1024" style="enable-background:new 0 0 1024 1024;" xml:space="preserve">
<g id="svgg">
	<path id="path0" d="M247.3,283.5c-11.5,3.1-19.1,10.2-24,22l-1.8,4.4v206.5v206.5l1.6,4.5c2.4,5.3,7.1,10,12.1,12.5l3.1,1.4h273.3
		H785l3.1-1.2c3.7-1.6,9.7-7.1,11.3-10.5c3.1-6.2,3.1,0.8,2.9-178.1c0-186.7-0.2-197.7-2.4-203.1c-4-9.4-11.3-16.7-20.4-20.4
		l-3.4-1.3L608.5,326l-167.7-0.3l-2.9-1.4c-6.3-3.4-11.3-8.7-19.1-20.8c-7.2-10.9-12.9-16.3-20.3-19.1l-3.5-1.4l-72.4,0
		c-61.5-0.2-72.5,0-75.5,0.6"/>
</g>
</svg>
