<svg width="24" height="25" viewBox="0 0 24 25" fill="none" xmlns="http://www.w3.org/2000/svg">
<path d="M2.89187 4.02071C2.49433 4.13233 2.23161 4.388 2.06222 4.8129L2 4.97134V12.4072V19.8431L2.05531 20.0051C2.13827 20.196 2.30075 20.3652 2.47359 20.4552L2.58075 20.5056H12.0284H21.4794L21.5866 20.4624C21.7145 20.4048 21.9219 20.2068 21.9772 20.0843C22.0844 19.8611 22.0844 20.1131 22.0775 13.6711C22.0775 6.94824 22.0706 6.55214 21.9945 6.35769C21.8562 6.01921 21.6039 5.75634 21.2893 5.62311L21.1718 5.5763L15.3781 5.55109L9.58091 5.54029L9.48066 5.48987C9.26288 5.36744 9.09003 5.1766 8.8204 4.74089C8.5715 4.34839 8.37446 4.15394 8.11865 4.05311L7.99766 4.0027H5.49489C3.36892 3.9955 2.98866 4.0027 2.88496 4.02431" fill="black"/>
</svg>
