<?xml version="1.0" encoding="UTF-8" standalone="no"?>
<!DOCTYPE svg PUBLIC "-//W3C//DTD SVG 1.1//EN" "http://www.w3.org/Graphics/SVG/1.1/DTD/svg11.dtd">
<svg width="100%" height="100%" viewBox="0 0 1024 1024" version="1.1" xmlns="http://www.w3.org/2000/svg" xmlns:xlink="http://www.w3.org/1999/xlink" xml:space="preserve" xmlns:serif="http://www.serif.com/" style="fill-rule:evenodd;clip-rule:evenodd;stroke-linecap:round;stroke-miterlimit:1;">
    <g id="path0" transform="matrix(1.42705,0,0,1.34218,-238.449,-175.349)">
        <path d="M247.3,283.5C235.8,286.6 228.2,293.7 223.3,305.5L221.5,309.9L221.5,722.9L223.1,727.4C225.5,732.7 230.2,737.4 235.2,739.9L238.3,741.3L785,741.3L788.1,740.1C791.8,738.5 797.8,733 799.4,729.6C802.5,723.4 802.5,730.4 802.3,551.5C802.3,364.8 802.1,373.171 799.9,367.771C795.9,358.371 788.6,351.071 779.5,347.371L776.1,346.071L608.5,345.371L440.8,345.071L437.9,343.671C431.6,340.271 405.9,287.2 398.5,284.4L395,283L322.6,283C261.1,282.8 250.1,283 247.1,283.6" style="fill-opacity:0;fill-rule:nonzero;stroke:black;stroke-width:46.92px;"/>
    </g>
</svg>
